<svg width="1929" height="279" viewBox="0 0 1929 279" fill="none" xmlns="http://www.w3.org/2000/svg">
    <path d="M440.5 250L440.512 251.5L440.5 250ZM870.5 77.0003L869.793 75.6773L870.5 77.0003ZM1355 277L1354.78 278.483L1355.03 278.522L1355.28 278.473L1355 277ZM1.82474 178.253C7.37181 174.602 12.8942 171.296 18.3926 168.315L16.9627 165.677C11.3871 168.7 5.79153 172.05 0.175257 175.747L1.82474 178.253ZM53.834 153.303C66.5024 149.395 79.0569 147.035 91.5079 145.971L91.2524 142.982C78.5946 144.063 65.8289 146.463 52.9496 150.436L53.834 153.303ZM129.963 146.563C142.67 147.968 155.283 150.486 167.815 153.841L168.591 150.943C155.936 147.555 143.172 145.005 130.293 143.581L129.963 146.563ZM204.539 165.892C216.505 170.463 228.398 175.558 240.229 180.923L241.468 178.191C229.6 172.809 217.649 167.689 205.61 163.09L204.539 165.892ZM275.314 197.465C287.041 203.121 298.721 208.798 310.344 214.23L311.614 211.512C300.013 206.091 288.356 200.425 276.617 194.763L275.314 197.465ZM345.953 229.896C358.249 234.869 370.506 239.269 382.73 242.778L383.558 239.895C371.459 236.421 359.304 232.059 347.078 227.115L345.953 229.896ZM420.979 250.507C427.495 251.204 434.005 251.552 440.512 251.5L440.488 248.5C434.104 248.551 427.708 248.21 421.298 247.524L420.979 250.507ZM440.512 251.5C447.193 251.447 453.727 251.267 460.136 250.958L459.991 247.962C453.624 248.268 447.131 248.447 440.488 248.5L440.512 251.5ZM499.136 247.302C512.243 245.437 524.985 242.951 537.609 239.834L536.89 236.921C524.363 240.014 511.719 242.482 498.713 244.332L499.136 247.302ZM575.156 228.659C587.143 224.504 599.24 219.776 611.657 214.468L610.478 211.71C598.117 216.993 586.086 221.695 574.174 225.824L575.156 228.659ZM647.233 198.186C658.453 192.754 670.048 186.898 682.144 180.615L680.762 177.953C668.684 184.226 657.115 190.069 645.926 195.486L647.233 198.186ZM716.742 162.279C727.708 156.374 739.109 150.168 751.02 143.659L749.581 141.026C737.672 147.534 726.277 153.737 715.319 159.637L716.742 162.279ZM785.273 124.907C796.266 118.889 807.679 112.649 819.559 106.186L818.125 103.551C806.242 110.016 794.826 116.257 783.833 122.276L785.273 124.907ZM853.947 87.5771C859.599 84.5365 865.351 81.4519 871.207 78.3233L869.793 75.6773C863.935 78.8073 858.18 81.8932 852.526 84.9351L853.947 87.5771ZM871.207 78.3233C877.267 75.0854 883.248 72.1674 889.152 69.5541L887.938 66.8108C881.964 69.4551 875.916 72.4058 869.793 75.6773L871.207 78.3233ZM926.71 56.6465C940.174 53.3741 953.234 51.6797 965.931 51.3535L965.854 48.3545C952.941 48.6863 939.669 50.4094 926.001 53.7313L926.71 56.6465ZM1005.42 54.7356C1018.42 57.2963 1031.06 61.2099 1043.39 66.2166L1044.52 63.4371C1032.03 58.3664 1019.21 54.3938 1006 51.7921L1005.42 54.7356ZM1078.99 83.9672C1090.3 90.6081 1101.36 98.0197 1112.22 105.969L1113.99 103.549C1103.07 95.5512 1091.92 88.0817 1080.51 81.3805L1078.99 83.9672ZM1143.6 130.655C1153.8 139.175 1163.86 147.981 1173.8 156.862L1175.8 154.624C1165.84 145.732 1155.76 136.901 1145.52 128.352L1143.6 130.655ZM1203.53 183.663C1213.59 192.733 1223.58 201.652 1233.54 210.177L1235.49 207.897C1225.56 199.398 1215.59 190.5 1205.54 181.435L1203.53 183.663ZM1264.81 235.394C1275.91 243.694 1287.04 251.204 1298.28 257.59L1299.76 254.982C1288.66 248.673 1277.63 241.237 1266.6 232.991L1264.81 235.394ZM1335.1 273.928C1341.6 275.94 1348.16 277.479 1354.78 278.483L1355.22 275.517C1348.77 274.537 1342.36 273.034 1335.99 271.063L1335.1 273.928ZM1355.28 278.473C1362.53 277.088 1369.57 275.606 1376.41 274.032L1375.74 271.108C1368.94 272.674 1361.93 274.148 1354.72 275.527L1355.28 278.473ZM1417.07 262.886C1431.18 258.343 1444.25 253.358 1456.37 248.004L1455.16 245.26C1443.13 250.57 1430.16 255.518 1416.15 260.031L1417.07 262.886ZM1494.08 228.502C1506.83 220.81 1518.25 212.66 1528.52 204.195L1526.61 201.881C1516.45 210.251 1505.15 218.316 1492.53 225.933L1494.08 228.502ZM1559.01 174.714C1568.82 163.578 1577.18 152.216 1584.45 140.904L1581.92 139.283C1574.73 150.482 1566.46 161.721 1556.76 172.73L1559.01 174.714ZM1604.98 103.979C1611.59 90.3686 1617.1 77.3086 1622.19 65.3802L1619.43 64.2034C1614.33 76.1496 1608.86 89.1373 1602.29 102.668L1604.98 103.979ZM1640.27 27.5825C1648.57 13.9535 1657.85 5.23782 1671.04 3.16165L1670.57 0.198169C1656.12 2.47326 1646.21 12.0631 1637.71 26.0225L1640.27 27.5825ZM1710.69 11.3694C1721.2 16.0777 1733.23 22.8115 1747.14 31.847L1748.78 29.3312C1734.78 20.2413 1722.61 13.4225 1711.92 8.63177L1710.69 11.3694ZM1781.55 56.0365C1791.89 63.7603 1803.01 72.4169 1815 82.067L1816.89 79.7298C1804.87 70.0614 1793.72 61.3822 1783.35 53.6334L1781.55 56.0365ZM1847.49 108.849C1857.56 117.323 1868.14 126.376 1879.27 136.033L1881.24 133.767C1870.1 124.102 1859.5 115.039 1849.42 106.554L1847.49 108.849ZM1910.69 163.6C1916.02 168.318 1921.45 173.157 1927 178.118L1929 175.882C1923.45 170.918 1918.01 166.076 1912.68 161.355L1910.69 163.6Z" fill="#022C97"/>
</svg>